<?xml version="1.0" encoding="UTF-8"?>
<svg id="Layer_2" data-name="Layer 2" xmlns="http://www.w3.org/2000/svg" viewBox="0 0 16.14 23.11">
  <defs>
    <style>
      .cls-1 {
        fill: #6366f1;
      }

      .cls-2 {
        fill: #27272a;
      }
    </style>
  </defs>
  <g id="Layer_1-2" data-name="Layer 1">
    <g>
      <rect class="cls-2" x="4.52" y="19.27" width="7.1" height="1.72"/>
      <rect class="cls-2" x="5.2" y="21.61" width="5.74" height="1.5"/>
      <path class="cls-1" d="M13.2,1.84c-1.47-1.2-3.28-1.84-5.16-1.84-.51,0-1.04.04-1.56.14C3.43.73.91,3.15.22,6.18c-.78,3.33.59,6.76,3.39,8.62,0,0,.55,3.49,1.21,3.49h6.49c.66,0,1.21-3.51,1.21-3.51,2.23-1.47,3.61-4.01,3.61-6.71,0-2.41-1.07-4.68-2.94-6.23ZM13.69,8.62c-.13,1.41-.79,2.73-1.88,3.67h0c-.42.4-.9.71-1.44.95l-.26,2.64h-4.09s-.26-2.64-.26-2.64c-.52-.23-1.02-.55-1.45-.93-1.09-.96-1.75-2.28-1.88-3.7-.07-.66-.02-1.34.15-2.01.51-1.99,2.14-3.58,4.15-4.04,1.72-.39,3.48,0,4.84,1.08,1.36,1.09,2.14,2.71,2.14,4.43,0,.18,0,.37-.03.55Z"/>
    </g>
  </g>
</svg>