<?xml version="1.0" encoding="UTF-8"?>
<svg id="Layer_2" data-name="Layer 2" xmlns="http://www.w3.org/2000/svg" viewBox="0 0 148.15 22.79">
  <defs>
    <style>
      .cls-1 {
        fill: #27272a;
      }

      .cls-2 {
        fill: #38bdf8;
      }
    </style>
  </defs>
  <g id="Layer_1-2" data-name="Layer 1">
    <g>
      <path class="cls-1" d="M22.92,3.69h3.32v3.32h-3.32v-3.32ZM22.92,8.68h3.32v14.12h-3.32v-14.12Z"/>
      <path class="cls-1" d="M38.79,3.69h3.32v12.46h-.02c-.11,1.85-.84,3.42-2.2,4.71s-2.97,1.93-4.83,1.93c-1.96,0-3.62-.69-4.99-2.07-1.38-1.37-2.07-3.04-2.07-4.99s.69-3.6,2.07-4.97c1.37-1.38,3.04-2.07,4.99-2.07,1.35,0,2.59.36,3.73,1.07V3.69ZM35.07,19.47c1.02,0,1.9-.36,2.64-1.09.73-.74,1.09-1.62,1.09-2.65s-.36-1.9-1.09-2.64c-.74-.73-1.62-1.09-2.64-1.09s-1.92.36-2.65,1.09c-.73.74-1.09,1.62-1.09,2.64s.36,1.92,1.09,2.65c.74.73,1.62,1.09,2.65,1.09Z"/>
      <path class="cls-1" d="M50.94,8.68c1.95,0,3.6.69,4.97,2.07,1.38,1.37,2.07,3.03,2.07,4.97v1.67h-10.41c.69,1.38,1.81,2.07,3.36,2.07h3.73v3.32h-4.15v-.02c-1.85-.11-3.42-.84-4.71-2.2s-1.93-2.98-1.93-4.85.69-3.6,2.07-4.97c1.37-1.38,3.04-2.07,4.99-2.07ZM54.28,14.08c-.69-1.38-1.8-2.07-3.34-2.07s-2.67.69-3.36,2.07h6.7Z"/>
      <path class="cls-1" d="M66.81,8.68c1.86,0,3.47.64,4.83,1.93s2.09,2.86,2.2,4.71h.02v7.47h-3.32v-1.07c-1.14.71-2.38,1.07-3.73,1.07-1.96,0-3.62-.69-4.99-2.07-1.38-1.37-2.07-3.04-2.07-4.99s.69-3.6,2.07-4.97c1.37-1.38,3.04-2.07,4.99-2.07ZM66.81,19.47c1.02,0,1.9-.36,2.64-1.09.73-.74,1.09-1.62,1.09-2.65s-.36-1.9-1.09-2.64c-.74-.73-1.62-1.09-2.64-1.09s-1.92.36-2.65,1.09c-.73.74-1.09,1.62-1.09,2.64s.36,1.92,1.09,2.65c.74.73,1.62,1.09,2.65,1.09Z"/>
      <path class="cls-1" d="M97.21,15.73c0-1.02-.36-1.9-1.09-2.64-.73-.73-1.61-1.09-2.64-1.09s-1.92.36-2.65,1.09c-.73.74-1.09,1.62-1.09,2.64v7.07h-3.32v-7.07c0-1.02-.36-1.9-1.09-2.64-.74-.73-1.62-1.09-2.64-1.09s-1.92.36-2.65,1.09c-.73.74-1.09,1.62-1.09,2.64v7.07h-3.32v-7.07c0-1.95.69-3.6,2.07-4.97,1.37-1.38,3.04-2.07,4.99-2.07,2.18,0,3.98.84,5.4,2.51,1.41-1.68,3.21-2.51,5.4-2.51,1.95,0,3.61.69,4.99,2.07s2.06,3.03,2.06,4.97v7.07h-3.32v-7.07Z"/>
      <path class="cls-1" d="M109.35,22.79c-1.96,0-3.62-.69-4.99-2.07-1.38-1.37-2.07-3.04-2.07-4.99s.69-3.6,2.07-4.97c1.37-1.38,3.04-2.07,4.99-2.07s3.6.69,4.97,2.07c1.38,1.37,2.07,3.03,2.07,4.97s-.69,3.62-2.07,4.99c-1.37,1.38-3.03,2.07-4.97,2.07ZM109.35,12c-1.03,0-1.92.36-2.65,1.09-.73.74-1.09,1.62-1.09,2.64s.36,1.92,1.09,2.65c.74.73,1.62,1.09,2.65,1.09s1.9-.36,2.64-1.09c.73-.74,1.09-1.62,1.09-2.65s-.36-1.9-1.09-2.64c-.74-.73-1.62-1.09-2.64-1.09Z"/>
      <path class="cls-1" d="M128.95,3.69h3.32v12.46h-.02c-.11,1.85-.84,3.42-2.2,4.71s-2.97,1.93-4.83,1.93c-1.96,0-3.62-.69-4.99-2.07-1.38-1.37-2.07-3.04-2.07-4.99s.69-3.6,2.07-4.97c1.37-1.38,3.04-2.07,4.99-2.07,1.35,0,2.59.36,3.73,1.07V3.69ZM125.22,19.47c1.02,0,1.9-.36,2.64-1.09.73-.74,1.09-1.62,1.09-2.65s-.36-1.9-1.09-2.64c-.74-.73-1.62-1.09-2.64-1.09s-1.92.36-2.65,1.09c-.73.74-1.09,1.62-1.09,2.64s.36,1.92,1.09,2.65c.74.73,1.62,1.09,2.65,1.09Z"/>
      <path class="cls-1" d="M141.1,8.68c1.95,0,3.6.69,4.97,2.07,1.38,1.37,2.07,3.03,2.07,4.97v1.67h-10.41c.69,1.38,1.81,2.07,3.36,2.07h3.73v3.32h-4.15v-.02c-1.85-.11-3.42-.84-4.71-2.2s-1.93-2.98-1.93-4.85.69-3.6,2.07-4.97c1.37-1.38,3.04-2.07,4.99-2.07ZM144.44,14.08c-.69-1.38-1.8-2.07-3.34-2.07s-2.67.69-3.36,2.07h6.7Z"/>
    </g>
    <g>
      <path class="cls-2" d="M13.56,18.3H5.21L0,11.77,1.86,3.62,9.39,0l7.53,3.62,1.86,8.15-5.21,6.53ZM6.41,15.8h5.95l3.71-4.65-1.32-5.8-5.36-2.58-5.36,2.58-1.32,5.8,3.71,4.65Z"/>
      <rect class="cls-1" x="5.01" y="18.96" width="8.75" height="1.72"/>
      <rect class="cls-1" x="5.85" y="21.29" width="7.07" height="1.5"/>
    </g>
  </g>
</svg>