<?xml version="1.0" encoding="UTF-8"?>
<svg id="Layer_2" data-name="Layer 2" xmlns="http://www.w3.org/2000/svg" viewBox="0 0 145.73 23.11">
  <defs>
    <style>
      .cls-1 {
        fill: #e4e4e7;
      }

      .cls-2 {
        fill: #6366f1;
      }
    </style>
  </defs>
  <g id="Layer_1-2" data-name="Layer 1">
    <g>
      <g>
        <path class="cls-1" d="M20.51,4h3.32v3.32h-3.32v-3.32ZM20.51,8.99h3.32v14.12h-3.32v-14.12Z"/>
        <path class="cls-1" d="M36.38,4h3.32v12.46h-.02c-.11,1.85-.84,3.42-2.2,4.71s-2.97,1.93-4.83,1.93c-1.96,0-3.62-.69-4.99-2.07-1.38-1.37-2.07-3.04-2.07-4.99s.69-3.6,2.07-4.97c1.37-1.38,3.04-2.07,4.99-2.07,1.35,0,2.59.36,3.73,1.07V4ZM32.65,19.78c1.02,0,1.9-.36,2.64-1.09.73-.74,1.09-1.62,1.09-2.65s-.36-1.9-1.09-2.64c-.74-.73-1.62-1.09-2.64-1.09s-1.92.36-2.65,1.09c-.73.74-1.09,1.62-1.09,2.64s.36,1.92,1.09,2.65c.74.73,1.62,1.09,2.65,1.09Z"/>
        <path class="cls-1" d="M48.53,8.99c1.95,0,3.6.69,4.97,2.07,1.38,1.37,2.07,3.03,2.07,4.97v1.67h-10.41c.69,1.38,1.81,2.07,3.36,2.07h3.73v3.32h-4.15v-.02c-1.85-.11-3.42-.84-4.71-2.2s-1.93-2.98-1.93-4.85.69-3.6,2.07-4.97c1.37-1.38,3.04-2.07,4.99-2.07ZM51.87,14.39c-.69-1.38-1.8-2.07-3.34-2.07s-2.67.69-3.36,2.07h6.7Z"/>
        <path class="cls-1" d="M64.4,8.99c1.86,0,3.47.64,4.83,1.93s2.09,2.86,2.2,4.71h.02v7.47h-3.32v-1.07c-1.14.71-2.38,1.07-3.73,1.07-1.96,0-3.62-.69-4.99-2.07-1.38-1.37-2.07-3.04-2.07-4.99s.69-3.6,2.07-4.97c1.37-1.38,3.04-2.07,4.99-2.07ZM64.4,19.78c1.02,0,1.9-.36,2.64-1.09.73-.74,1.09-1.62,1.09-2.65s-.36-1.9-1.09-2.64c-.74-.73-1.62-1.09-2.64-1.09s-1.92.36-2.65,1.09c-.73.74-1.09,1.62-1.09,2.64s.36,1.92,1.09,2.65c.74.73,1.62,1.09,2.65,1.09Z"/>
        <path class="cls-1" d="M94.79,16.04c0-1.02-.36-1.9-1.09-2.64-.73-.73-1.61-1.09-2.64-1.09s-1.92.36-2.65,1.09c-.73.74-1.09,1.62-1.09,2.64v7.07h-3.32v-7.07c0-1.02-.36-1.9-1.09-2.64-.74-.73-1.62-1.09-2.64-1.09s-1.92.36-2.65,1.09c-.73.74-1.09,1.62-1.09,2.64v7.07h-3.32v-7.07c0-1.95.69-3.6,2.07-4.97,1.37-1.38,3.04-2.07,4.99-2.07,2.18,0,3.98.84,5.4,2.51,1.41-1.68,3.21-2.51,5.4-2.51,1.95,0,3.61.69,4.99,2.07s2.06,3.03,2.06,4.97v7.07h-3.32v-7.07Z"/>
        <path class="cls-1" d="M106.94,23.11c-1.96,0-3.62-.69-4.99-2.07-1.38-1.37-2.07-3.04-2.07-4.99s.69-3.6,2.07-4.97c1.37-1.38,3.04-2.07,4.99-2.07s3.6.69,4.97,2.07c1.38,1.37,2.07,3.03,2.07,4.97s-.69,3.62-2.07,4.99c-1.37,1.38-3.03,2.07-4.97,2.07ZM106.94,12.31c-1.03,0-1.92.36-2.65,1.09-.73.74-1.09,1.62-1.09,2.64s.36,1.92,1.09,2.65c.74.73,1.62,1.09,2.65,1.09s1.9-.36,2.64-1.09c.73-.74,1.09-1.62,1.09-2.65s-.36-1.9-1.09-2.64c-.74-.73-1.62-1.09-2.64-1.09Z"/>
        <path class="cls-1" d="M126.54,4h3.32v12.46h-.02c-.11,1.85-.84,3.42-2.2,4.71s-2.97,1.93-4.83,1.93c-1.96,0-3.62-.69-4.99-2.07-1.38-1.37-2.07-3.04-2.07-4.99s.69-3.6,2.07-4.97c1.37-1.38,3.04-2.07,4.99-2.07,1.35,0,2.59.36,3.73,1.07V4ZM122.81,19.78c1.02,0,1.9-.36,2.64-1.09.73-.74,1.09-1.62,1.09-2.65s-.36-1.9-1.09-2.64c-.74-.73-1.62-1.09-2.64-1.09s-1.92.36-2.65,1.09c-.73.74-1.09,1.62-1.09,2.64s.36,1.92,1.09,2.65c.74.73,1.62,1.09,2.65,1.09Z"/>
        <path class="cls-1" d="M138.68,8.99c1.95,0,3.6.69,4.97,2.07,1.38,1.37,2.07,3.03,2.07,4.97v1.67h-10.41c.69,1.38,1.81,2.07,3.36,2.07h3.73v3.32h-4.15v-.02c-1.85-.11-3.42-.84-4.71-2.2s-1.93-2.98-1.93-4.85.69-3.6,2.07-4.97c1.37-1.38,3.04-2.07,4.99-2.07ZM142.02,14.39c-.69-1.38-1.8-2.07-3.34-2.07s-2.67.69-3.36,2.07h6.7Z"/>
      </g>
      <g>
        <rect class="cls-1" x="4.52" y="19.27" width="7.1" height="1.72"/>
        <rect class="cls-1" x="5.2" y="21.61" width="5.74" height="1.5"/>
        <path class="cls-2" d="M13.2,1.84c-1.47-1.2-3.28-1.84-5.16-1.84-.51,0-1.04.04-1.56.14C3.43.73.91,3.15.22,6.18c-.78,3.33.59,6.76,3.39,8.62,0,0,.55,3.49,1.21,3.49h6.49c.66,0,1.21-3.51,1.21-3.51,2.23-1.47,3.61-4.01,3.61-6.71,0-2.41-1.07-4.68-2.94-6.23ZM13.69,8.62c-.13,1.41-.79,2.73-1.88,3.67h0c-.42.4-.9.71-1.44.95l-.26,2.64h-4.09s-.26-2.64-.26-2.64c-.52-.23-1.02-.55-1.45-.93-1.09-.96-1.75-2.28-1.88-3.7-.07-.66-.02-1.34.15-2.01.51-1.99,2.14-3.58,4.15-4.04,1.72-.39,3.48,0,4.84,1.08,1.36,1.09,2.14,2.71,2.14,4.43,0,.18,0,.37-.03.55Z"/>
      </g>
    </g>
  </g>
</svg>