<?xml version="1.0" encoding="UTF-8"?>
<svg id="Layer_2" data-name="Layer 2" xmlns="http://www.w3.org/2000/svg" viewBox="0 0 158.77 20.34">
  <defs>
    <style>
      .cls-1 {
        fill: #6366f1;
      }

      .cls-2 {
        fill: #27272a;
      }

      .cls-3 {
        fill: #38bdf8;
      }
    </style>
  </defs>
  <g id="Layer_1-2" data-name="Layer 1">
    <g>
      <path class="cls-2" d="M0,.62h3.32v3.32H0V.62ZM0,5.61h3.32v14.12H0V5.61Z"/>
      <path class="cls-2" d="M15.87.62h3.32v12.46h-.02c-.11,1.85-.84,3.42-2.2,4.71s-2.97,1.93-4.83,1.93c-1.96,0-3.62-.69-4.99-2.07-1.38-1.37-2.07-3.04-2.07-4.99s.69-3.6,2.07-4.97c1.37-1.38,3.04-2.07,4.99-2.07,1.35,0,2.59.36,3.73,1.07V.62ZM12.15,16.4c1.02,0,1.9-.36,2.64-1.09.73-.74,1.09-1.62,1.09-2.65s-.36-1.9-1.09-2.64c-.74-.73-1.62-1.09-2.64-1.09s-1.92.36-2.65,1.09c-.73.74-1.09,1.62-1.09,2.64s.36,1.92,1.09,2.65c.74.73,1.62,1.09,2.65,1.09Z"/>
      <path class="cls-2" d="M28.02,5.61c1.95,0,3.6.69,4.97,2.07,1.38,1.37,2.07,3.03,2.07,4.97v1.67h-10.41c.69,1.38,1.81,2.07,3.36,2.07h3.73v3.32h-4.15v-.02c-1.85-.11-3.42-.84-4.71-2.2s-1.93-2.98-1.93-4.85.69-3.6,2.07-4.97c1.37-1.38,3.04-2.07,4.99-2.07ZM31.36,11c-.69-1.38-1.8-2.07-3.34-2.07s-2.67.69-3.36,2.07h6.7Z"/>
      <path class="cls-2" d="M43.89,5.61c1.86,0,3.47.64,4.83,1.93s2.09,2.86,2.2,4.71h.02v7.47h-3.32v-1.07c-1.14.71-2.38,1.07-3.73,1.07-1.96,0-3.62-.69-4.99-2.07-1.38-1.37-2.07-3.04-2.07-4.99s.69-3.6,2.07-4.97c1.37-1.38,3.04-2.07,4.99-2.07ZM43.89,16.4c1.02,0,1.9-.36,2.64-1.09.73-.74,1.09-1.62,1.09-2.65s-.36-1.9-1.09-2.64c-.74-.73-1.62-1.09-2.64-1.09s-1.92.36-2.65,1.09c-.73.74-1.09,1.62-1.09,2.64s.36,1.92,1.09,2.65c.74.73,1.62,1.09,2.65,1.09Z"/>
      <path class="cls-2" d="M74.29,12.66c0-1.02-.36-1.9-1.09-2.64-.73-.73-1.61-1.09-2.64-1.09s-1.92.36-2.65,1.09c-.73.74-1.09,1.62-1.09,2.64v7.07h-3.32v-7.07c0-1.02-.36-1.9-1.09-2.64-.74-.73-1.62-1.09-2.64-1.09s-1.92.36-2.65,1.09c-.73.74-1.09,1.62-1.09,2.64v7.07h-3.32v-7.07c0-1.95.69-3.6,2.07-4.97,1.37-1.38,3.04-2.07,4.99-2.07,2.18,0,3.98.84,5.4,2.51,1.41-1.68,3.21-2.51,5.4-2.51,1.95,0,3.61.69,4.99,2.07s2.06,3.03,2.06,4.97v7.07h-3.32v-7.07Z"/>
      <path class="cls-2" d="M86.43,19.72c-1.96,0-3.62-.69-4.99-2.07-1.38-1.37-2.07-3.04-2.07-4.99s.69-3.6,2.07-4.97c1.37-1.38,3.04-2.07,4.99-2.07s3.6.69,4.97,2.07c1.38,1.37,2.07,3.03,2.07,4.97s-.69,3.62-2.07,4.99c-1.37,1.38-3.03,2.07-4.97,2.07ZM86.43,8.93c-1.03,0-1.92.36-2.65,1.09-.73.74-1.09,1.62-1.09,2.64s.36,1.92,1.09,2.65c.74.73,1.62,1.09,2.65,1.09s1.9-.36,2.64-1.09c.73-.74,1.09-1.62,1.09-2.65s-.36-1.9-1.09-2.64c-.74-.73-1.62-1.09-2.64-1.09Z"/>
      <path class="cls-2" d="M106.03.62h3.32v12.46h-.02c-.11,1.85-.84,3.42-2.2,4.71s-2.97,1.93-4.83,1.93c-1.96,0-3.62-.69-4.99-2.07-1.38-1.37-2.07-3.04-2.07-4.99s.69-3.6,2.07-4.97c1.37-1.38,3.04-2.07,4.99-2.07,1.35,0,2.59.36,3.73,1.07V.62ZM102.3,16.4c1.02,0,1.9-.36,2.64-1.09.73-.74,1.09-1.62,1.09-2.65s-.36-1.9-1.09-2.64c-.74-.73-1.62-1.09-2.64-1.09s-1.92.36-2.65,1.09c-.73.74-1.09,1.62-1.09,2.64s.36,1.92,1.09,2.65c.74.73,1.62,1.09,2.65,1.09Z"/>
      <path class="cls-2" d="M118.18,5.61c1.95,0,3.6.69,4.97,2.07,1.38,1.37,2.07,3.03,2.07,4.97v1.67h-10.41c.69,1.38,1.81,2.07,3.36,2.07h3.73v3.32h-4.15v-.02c-1.85-.11-3.42-.84-4.71-2.2s-1.93-2.98-1.93-4.85.69-3.6,2.07-4.97c1.37-1.38,3.04-2.07,4.99-2.07ZM121.52,11c-.69-1.38-1.8-2.07-3.34-2.07s-2.67.69-3.36,2.07h6.7Z"/>
    </g>
    <g>
      <rect class="cls-2" x="129.84" y="15.12" width="22.2" height="5.22"/>
      <rect class="cls-1" x="133.2" y="7.56" width="22.2" height="5.22"/>
      <rect class="cls-3" x="136.56" width="22.2" height="5.22"/>
    </g>
  </g>
</svg>
